<?xml version="1.0" encoding="UTF-8"?>
<svg id="Layer_1" data-name="Layer 1" xmlns="http://www.w3.org/2000/svg" viewBox="0 0 25 25">
  <defs>
    <style>
      .cls-1 {
        fill: #fff;
      }
    </style>
  </defs>
  <path class="cls-1" d="M18.74,6.77c-1.15-.53-2.38-.91-3.66-1.14-.02,0-.05,0-.06,.03-.16,.28-.33,.65-.46,.94-1.38-.21-2.76-.21-4.12,0-.12-.29-.3-.66-.46-.94-.01-.02-.04-.03-.06-.03-1.29,.22-2.52,.61-3.66,1.14,0,0-.02,.01-.02,.02-2.33,3.49-2.97,6.89-2.66,10.25,0,.02,.01,.03,.02,.04,1.54,1.13,3.03,1.82,4.49,2.27,.02,0,.05,0,.06-.02,.35-.47,.65-.97,.92-1.5,.02-.03,0-.07-.03-.08-.49-.19-.96-.41-1.4-.67-.04-.02-.04-.07,0-.1,.09-.07,.19-.14,.28-.22,.02-.01,.04-.02,.06,0,2.95,1.34,6.14,1.34,9.05,0,.02,0,.04,0,.06,0,.09,.07,.18,.15,.28,.22,.03,.02,.03,.08,0,.1-.45,.26-.91,.48-1.4,.67-.03,.01-.05,.05-.03,.08,.27,.52,.58,1.02,.92,1.49,.01,.02,.04,.03,.06,.02,1.47-.45,2.96-1.14,4.5-2.27,.01,0,.02-.02,.02-.04,.38-3.88-.63-7.26-2.66-10.25,0,0-.01-.02-.02-.02ZM9.52,14.99c-.89,0-1.62-.81-1.62-1.81s.72-1.81,1.62-1.81,1.63,.82,1.62,1.81c0,1-.72,1.81-1.62,1.81Zm5.98,0c-.89,0-1.62-.81-1.62-1.81s.72-1.81,1.62-1.81,1.63,.82,1.62,1.81c0,1-.71,1.81-1.62,1.81Z"/>
</svg>