<svg width="21" height="21" viewBox="0 0 21 21" fill="none" xmlns="http://www.w3.org/2000/svg">
<path d="M20.6663 5.1822C21.0004 4.84813 21.0004 4.30419 20.6663 3.97012L17.0301 0.333898C16.696 -0.000174721 16.152 -0.000174721 15.818 0.333898L14.0619 2.08991C13.8264 2.32547 13.4752 2.40685 13.1668 2.29121C9.66339 0.950648 5.60314 1.76441 2.90061 4.46694C-0.855543 8.22309 -0.855543 14.3392 2.90061 18.0953C4.78082 19.9755 7.2478 20.9134 9.71475 20.9134C12.1817 20.9134 14.6487 19.9755 16.5289 18.0953C19.2315 15.3927 20.0453 11.3325 18.7046 7.82905C18.5847 7.52069 18.6704 7.16948 18.906 6.93392L20.6663 5.1822ZM17.9424 4.87811L16.2762 6.54418C16.0407 6.77973 15.9851 7.14378 16.1478 7.43502C16.6703 8.37727 16.9915 9.40095 17.1029 10.4331C17.2057 11.3753 16.6104 12.2662 15.7024 12.5274C15.1669 12.6817 14.4603 12.793 13.5437 12.793C10.4729 12.793 9.07235 10.3046 6.34838 10.3046C5.02495 10.3046 4.00989 10.6001 3.32034 10.9042C2.79353 11.1355 2.22819 10.7029 2.31384 10.129C2.44661 9.26387 2.72929 8.42012 3.17044 7.63633C4.57524 5.1308 7.13645 3.80309 9.72339 3.80309C10.9654 3.80309 12.216 4.10718 13.351 4.74105L13.5652 4.85669C13.8564 5.01944 14.2205 4.96805 14.4603 4.73249L16.1263 3.06642C16.2934 2.89939 16.5632 2.89939 16.7303 3.06642L17.9424 4.27849C18.1093 4.44124 18.1093 4.71108 17.9424 4.87811Z" fill="url(#paint0_linear_69_267)"/>
<defs>
<linearGradient id="paint0_linear_69_267" x1="0.0923216" y1="10.4863" x2="20.9117" y2="10.4863" gradientUnits="userSpaceOnUse">
<stop stop-color="#8A86FF"/>
<stop offset="0.9952" stop-color="#E13CBD"/>
</linearGradient>
</defs>
</svg>
