<?xml version="1.0" encoding="UTF-8"?>
<svg id="Layer_1" data-name="Layer 1" xmlns="http://www.w3.org/2000/svg" viewBox="0 0 25 25">
  <defs>
    <style>
      .cls-1 {
        fill: #fff;
      }
    </style>
  </defs>
  <path class="cls-1" d="M3,18.47c1.73,1.11,3.77,1.75,5.98,1.75,7.24,0,11.33-6.11,11.08-11.6,.76-.55,1.42-1.24,1.94-2.02-.7,.31-1.45,.52-2.24,.61,.8-.48,1.42-1.25,1.71-2.16-.75,.45-1.59,.77-2.47,.95-.71-.76-1.72-1.23-2.85-1.23-2.52,0-4.37,2.35-3.8,4.79-3.24-.16-6.11-1.71-8.03-4.07-1.02,1.75-.53,4.04,1.21,5.2-.64-.02-1.24-.2-1.77-.49-.04,1.81,1.25,3.49,3.13,3.87-.55,.15-1.15,.18-1.76,.07,.49,1.55,1.93,2.68,3.64,2.71-1.64,1.28-3.7,1.86-5.77,1.61Z"/>
</svg>